<svg width="153" height="28" viewBox="0 0 153 28" fill="none" xmlns="http://www.w3.org/2000/svg">
<g clip-path="url(#clip0_103_187)">
<path d="M101.072 1.2734L94.6353 22.4968H87.3654L84.1183 11.1574L80.6989 22.4968H73.4289L66.9923 1.2734H73.9749L77.4805 13.3404L81.1874 1.2734H87.4229L90.9285 13.492L94.6353 1.2734H101.072Z" fill="#148E28"/>
<path d="M109.531 22.8C107.787 22.8 106.217 22.4362 104.818 21.7085C103.439 20.9606 102.356 19.9399 101.571 18.6463C100.786 17.3324 100.393 15.8468 100.393 14.1894C100.393 12.5319 100.786 11.0564 101.571 9.76276C102.356 8.44894 103.439 7.42819 104.818 6.70053C106.217 5.97287 107.787 5.60904 109.531 5.60904C111.293 5.60904 112.864 5.97287 114.243 6.70053C115.642 7.42819 116.724 8.44894 117.49 9.76276C118.276 11.0564 118.668 12.5319 118.668 14.1894C118.668 15.8468 118.276 17.3324 117.49 18.6463C116.724 19.9399 115.642 20.9606 114.243 21.7085C112.864 22.4362 111.293 22.8 109.531 22.8ZM109.531 17.4638C110.278 17.4638 110.891 17.1808 111.37 16.6149C111.849 16.0287 112.088 15.2202 112.088 14.1894C112.088 13.1585 111.849 12.3601 111.37 11.7941C110.891 11.2282 110.278 10.9452 109.531 10.9452C108.784 10.9452 108.17 11.2282 107.692 11.7941C107.213 12.3601 106.973 13.1585 106.973 14.1894C106.973 15.2202 107.213 16.0287 107.692 16.6149C108.17 17.1808 108.784 17.4638 109.531 17.4638Z" fill="#148E28"/>
<path d="M126.879 7.70106C128.028 6.30638 129.724 5.60904 131.965 5.60904V11.6729C131.448 11.592 130.969 11.5516 130.528 11.5516C128.306 11.5516 127.195 12.7441 127.195 15.1293V22.4968H120.701V5.91223H126.879V7.70106Z" fill="#148E28"/>
<path d="M141.334 17.4032L140.3 18.5856V22.4968H133.806V0H140.3V10.733L144.811 5.91223H152.483L145.989 13.0979L153.001 22.4968H145.156L141.334 17.4032Z" fill="#148E28"/>
<path d="M10.7656 22.293C8.72603 22.293 6.88846 21.8372 5.25293 20.9257C3.6174 19.9943 2.32822 18.7162 1.38539 17.0913C0.461796 15.4664 0 13.6532 0 11.6518C0 9.65039 0.461796 7.83723 1.38539 6.21231C2.32822 4.5874 3.6174 3.31918 5.25293 2.40764C6.88846 1.47629 8.72603 1.01062 10.7656 1.01062C12.786 1.01062 14.6139 1.47629 16.2495 2.40764C17.885 3.31918 19.1645 4.5874 20.0881 6.21231C21.0117 7.81741 21.4735 9.63057 21.4735 11.6518C21.4735 13.673 21.0117 15.4961 20.0881 17.121C19.1645 18.7261 17.885 19.9943 16.2495 20.9257C14.6139 21.8372 12.786 22.293 10.7656 22.293ZM10.7656 19.6476C12.2472 19.6476 13.5749 19.3008 14.7486 18.6072C15.9416 17.9137 16.8748 16.9625 17.5483 15.7537C18.241 14.5251 18.5873 13.1578 18.5873 11.6518C18.5873 10.1458 18.241 8.78839 17.5483 7.57962C16.8748 6.35103 15.9416 5.38995 14.7486 4.69639C13.5749 4.00283 12.2472 3.65605 10.7656 3.65605C9.28403 3.65605 7.93713 4.00283 6.72491 4.69639C5.53194 5.38995 4.5891 6.35103 3.89641 7.57962C3.22295 8.78839 2.88623 10.1458 2.88623 11.6518C2.88623 13.1578 3.22295 14.5251 3.89641 15.7537C4.5891 16.9625 5.53194 17.9137 6.72491 18.6072C7.93713 19.3008 9.28403 19.6476 10.7656 19.6476Z" fill="#FE6F66"/>
<path d="M33.6489 6.15287C35.5923 6.15287 37.1316 6.73744 38.2669 7.90658C39.4214 9.05591 39.9986 10.7502 39.9986 12.9894V22.0552H37.2278V13.3163C37.2278 11.7905 36.8719 10.6412 36.1599 9.86837C35.448 9.09554 34.4282 8.70913 33.1005 8.70913C31.5997 8.70913 30.4163 9.1649 29.5505 10.0764C28.6846 10.9682 28.2517 12.2562 28.2517 13.9406V22.0552H25.4809V6.30149H28.1362V8.67941C28.6942 7.86695 29.4446 7.24275 30.3875 6.80679C31.3495 6.37084 32.4367 6.15287 33.6489 6.15287Z" fill="#FE6F66"/>
<path d="M45.1264 0H47.8972V22.0552H45.1264V0Z" fill="#FE6F66"/>
<path d="M66.7239 6.30149L59.3063 23.6306C58.6521 25.2357 57.8825 26.3652 56.9973 27.0191C56.1315 27.673 55.0828 28 53.8514 28C53.101 28 52.3698 27.8712 51.6578 27.6136C50.9651 27.3758 50.3879 27.0191 49.9261 26.5435L51.1094 24.4034C51.8983 25.1762 52.8123 25.5626 53.8514 25.5626C54.5248 25.5626 55.0828 25.3744 55.5254 24.9979C55.9872 24.6412 56.4009 24.017 56.7665 23.1253L57.2571 22.0255L50.5033 6.30149H53.3896L58.7291 18.9045L64.0109 6.30149H66.7239Z" fill="#FE6F66"/>
</g>
<defs>
<clipPath id="clip0_103_187">
<rect width="153" height="28" fill="white"/>
</clipPath>
</defs>
</svg>
