<svg width="241" height="94" viewBox="0 0 241 94" fill="none" xmlns="http://www.w3.org/2000/svg">
<path d="M11.4899 67.7902L0 22.4052H4.88319L14.3623 61.758L24.416 22.4052H29.0119L16.6603 67.7902H11.4899ZM57.7366 51.9916V58.5983C57.7366 62.0452 56.8749 64.3432 55.1514 66.0667C53.4279 67.5029 50.5554 68.3647 47.1085 68.3647H42.7998C38.7783 68.3647 35.9058 67.5029 34.1824 65.7795C32.7461 63.7687 31.8844 60.3218 31.8844 55.4386V53.1406H36.4803V56.8748C36.4803 59.46 37.0548 61.4708 37.9166 62.3325C38.7783 63.4815 40.5018 64.056 42.7998 64.056H47.3957C49.4064 64.056 50.8427 63.4815 51.7044 62.6197C52.5662 61.758 53.1406 60.0345 53.1406 57.7365V54.0023C53.1406 52.8534 52.8534 51.9916 52.8534 51.4171C52.8534 50.8426 52.5662 50.2681 52.2789 49.6936C51.7044 48.5447 49.1192 47.6829 44.5232 46.8212C43.6615 46.8212 42.7998 46.5339 42.5125 46.5339C42.2253 46.5339 41.938 46.5339 41.6508 46.2467C38.7783 45.9594 37.0548 45.3849 36.1931 44.8104C35.0441 44.2359 34.1824 43.087 33.6079 41.938C33.0334 40.789 32.7461 39.0655 32.7461 37.342V31.5971C32.7461 28.1501 33.6079 25.8522 35.3313 24.1287C37.0548 22.6924 39.9273 21.8307 43.6615 21.8307H46.8212C50.8427 21.8307 53.7151 22.6924 55.4386 24.4159C56.8749 26.1394 57.7366 29.2991 57.7366 33.3206V34.7568H53.1406V33.3206C53.1406 30.7354 52.5662 28.7246 51.7044 27.8629C50.8427 26.7139 49.4064 26.4267 47.1085 26.4267H43.3743C41.0763 26.4267 39.64 26.7139 38.7783 27.5756C37.9166 28.4374 37.6293 30.1609 37.6293 32.4588V37.342C37.6293 39.64 39.64 41.3635 43.6615 41.938C44.8105 41.938 45.385 42.2252 45.9595 42.2252C50.8427 43.087 54.0024 43.9487 55.4386 45.3849C57.1621 46.8212 57.7366 49.1191 57.7366 51.9916ZM121.218 52.5661C121.218 52.8534 121.218 53.1406 121.218 53.4278C121.218 54.0023 121.218 54.5768 121.218 55.1513C121.218 59.7473 120.356 62.907 118.633 65.205C116.909 67.2157 114.037 68.3647 110.59 68.3647H105.994C104.271 68.3647 102.547 68.0774 100.824 67.5029C99.3874 66.6412 98.2384 65.7795 97.3766 64.3432C96.8021 63.4815 96.2277 62.0452 95.9404 60.609C95.6532 59.1728 95.3659 57.1621 95.3659 54.0023V52.5661V37.342C95.3659 31.8843 96.5149 27.8629 98.2384 25.2777C100.249 22.9797 103.122 21.8307 107.43 21.8307H109.728C113.75 21.8307 116.622 22.6924 118.633 24.7032C120.356 27.0011 121.218 30.1609 121.218 35.0441C121.218 35.6185 121.218 35.9058 121.218 36.193C121.218 36.4803 121.218 36.7675 121.218 37.0548H116.335V36.4803C116.335 32.4588 115.76 29.8736 114.899 28.4374C113.75 27.0011 112.026 26.4267 109.441 26.4267H107.143C104.558 26.4267 102.834 27.0011 101.685 28.4374C100.824 29.8736 100.249 32.7461 100.249 37.342V52.5661C100.249 57.7365 100.824 60.8963 101.685 62.0452C102.547 63.1942 104.271 64.056 107.143 64.056H109.441C112.313 64.056 114.037 63.1942 114.899 62.0452C115.76 60.8963 116.335 58.0238 116.335 53.7151V52.5661H121.218ZM135.293 64.6305C137.591 64.6305 139.027 64.056 139.889 63.1942C141.038 62.0452 141.325 60.3218 141.325 58.0238C141.325 55.4386 141.038 54.0023 140.176 53.1406C139.315 52.2789 137.878 51.7044 135.58 51.7044C133.57 51.7044 131.846 52.2789 131.272 53.1406C130.41 54.0023 130.123 56.0131 130.123 58.5983C130.123 60.8963 130.41 62.3325 131.272 63.1942C132.133 64.3432 133.282 64.6305 135.293 64.6305ZM141.325 67.7902V64.9177C140.464 66.0667 139.602 67.2157 138.453 67.5029C137.304 68.0774 135.58 68.3647 133.57 68.3647C130.985 68.3647 128.974 67.7902 127.825 66.3539C126.389 65.205 125.814 63.1942 125.814 60.3218V56.0131C125.814 53.4278 126.389 51.4171 127.825 49.9809C129.261 48.5447 131.272 47.9702 134.144 47.9702C135.868 47.9702 137.304 48.2574 138.453 48.5447C139.602 49.1191 140.464 49.6936 141.325 50.8426V45.6722C141.325 43.087 141.038 41.3635 140.176 40.5017C139.602 39.64 138.166 39.0655 135.868 39.0655C134.144 39.0655 132.708 39.3528 132.133 40.2145C131.272 40.789 130.985 41.6507 130.985 43.087V44.8104H126.676V43.3742C126.676 40.5017 127.538 38.491 128.974 37.342C130.41 35.9058 132.708 35.3313 136.155 35.3313C139.602 35.3313 141.9 35.9058 143.336 37.342C144.772 38.7783 145.347 41.0762 145.347 44.8104V67.7902H141.325ZM156.549 49.4064V54.5768C156.549 58.311 157.124 60.8963 157.986 62.3325C159.135 63.7687 160.571 64.6305 163.156 64.6305C165.167 64.6305 166.603 63.7687 167.178 62.3325C168.039 60.8963 168.614 58.311 168.614 54.5768V49.1191C168.614 45.3849 168.039 42.7997 167.178 41.3635C166.603 39.9272 165.167 39.3528 163.156 39.3528C160.571 39.3528 159.135 39.9272 157.986 41.3635C157.124 42.7997 156.549 45.6722 156.549 49.4064ZM172.923 54.8641C172.923 59.7473 172.061 63.1942 170.912 65.205C169.476 67.5029 167.178 68.3647 164.305 68.3647C162.582 68.3647 161.145 68.0774 159.709 67.5029C158.56 66.6412 157.411 65.7795 156.549 64.3432V79.5673H152.528V35.9058H156.262V39.9272C157.411 38.2038 158.56 37.0548 159.709 36.4803C161.145 35.9058 162.582 35.3313 164.305 35.3313C167.465 35.3313 169.476 36.4803 170.912 38.7783C172.061 40.789 172.923 44.5232 172.923 49.9809V54.8641ZM178.955 67.7902V35.9058H182.976V67.7902H178.955ZM178.955 27.5756V22.4052H182.976V27.5756H178.955ZM190.732 39.9272H187.572V35.9058H190.732V28.4374H195.041V35.9058H205.381V39.9272H195.041V58.0238C195.041 60.8963 195.328 62.6197 195.615 63.4815C196.19 64.3432 197.339 64.6305 198.775 64.6305C200.211 64.6305 201.073 64.3432 201.647 63.4815C202.222 62.907 202.509 61.4708 202.509 59.7473V56.8748H206.243V59.1728C206.243 62.3325 205.669 64.9177 204.232 66.3539C203.083 67.7902 201.073 68.3647 198.2 68.3647C195.615 68.3647 193.604 67.7902 192.455 66.3539C191.306 65.205 190.732 62.6197 190.732 59.1728V39.9272ZM219.744 64.6305C222.042 64.6305 223.765 64.056 224.627 63.1942C225.489 62.0452 226.063 60.3218 226.063 58.0238C226.063 55.4386 225.776 54.0023 224.914 53.1406C224.052 52.2789 222.616 51.7044 220.318 51.7044C218.02 51.7044 216.584 52.2789 215.722 53.1406C215.148 54.0023 214.573 56.0131 214.573 58.5983C214.573 60.8963 215.148 62.3325 215.722 63.1942C216.584 64.3432 218.02 64.6305 219.744 64.6305ZM225.776 67.7902V64.9177C225.201 66.0667 224.34 67.2157 223.191 67.5029C221.754 68.0774 220.318 68.3647 218.308 68.3647C215.722 68.3647 213.712 67.7902 212.275 66.3539C211.126 65.205 210.265 63.1942 210.265 60.3218V56.0131C210.265 53.4278 211.126 51.4171 212.563 49.9809C213.999 48.5447 216.01 47.9702 218.882 47.9702C220.605 47.9702 222.042 48.2574 223.191 48.5447C224.34 49.1191 225.201 49.6936 225.776 50.8426V45.6722C225.776 43.087 225.489 41.3635 224.914 40.5017C224.052 39.64 222.616 39.0655 220.605 39.0655C218.595 39.0655 217.446 39.3528 216.584 40.2145C216.01 40.789 215.435 41.6507 215.435 43.087V44.8104H211.414V43.3742C211.414 40.5017 211.988 38.491 213.424 37.342C215.148 35.9058 217.446 35.3313 220.605 35.3313C224.052 35.3313 226.638 35.9058 227.787 37.342C229.223 38.7783 229.797 41.0762 229.797 44.8104V67.7902H225.776ZM236.979 67.7902V21.5435H241V67.7902H236.979Z" fill="white"/>
<path d="M77.5566 0V93.3552H74.1096V0H77.5566Z" fill="#890000"/>
</svg>
