<svg width="131" height="52" viewBox="0 0 131 52" fill="none" xmlns="http://www.w3.org/2000/svg">
<path d="M6.24553 37.5643L0 12.8945H2.65435L7.80691 34.2854L13.2718 12.8945H15.77L9.05602 37.5643H6.24553ZM31.3838 28.9767V32.5679C31.3838 34.4416 30.9154 35.6907 29.9785 36.6275C29.0417 37.4082 27.4803 37.8766 25.6067 37.8766H23.2646C21.0787 37.8766 19.5173 37.4082 18.5805 36.4714C17.7998 35.3784 17.3313 33.5048 17.3313 30.8504V29.6013H19.8296V31.6311C19.8296 33.0363 20.1418 34.1293 20.6103 34.5977C21.0787 35.2223 22.0155 35.5345 23.2646 35.5345H25.7628C26.8558 35.5345 27.6365 35.2223 28.1049 34.7539C28.5733 34.2854 28.8856 33.3486 28.8856 32.0995V30.0697C28.8856 29.4452 28.7294 28.9767 28.7294 28.6645C28.7294 28.3522 28.5733 28.0399 28.4172 27.7276C28.1049 27.1031 26.6996 26.6347 24.2014 26.1663C23.733 26.1663 23.2646 26.0101 23.1085 26.0101C22.9523 26.0101 22.7962 26.0101 22.64 25.854C21.0787 25.6978 20.1418 25.3856 19.6734 25.0733C19.0489 24.761 18.5805 24.1365 18.2682 23.5119C17.9559 22.8873 17.7998 21.9505 17.7998 21.0137V17.8909C17.7998 16.0173 18.2682 14.7682 19.205 13.8313C20.1418 13.0506 21.7032 12.5822 23.733 12.5822H25.4505C27.6365 12.5822 29.1979 13.0506 30.1347 13.9875C30.9154 14.9243 31.3838 16.6418 31.3838 18.8278V19.6084H28.8856V18.8278C28.8856 17.4225 28.5733 16.3295 28.1049 15.8611C27.6365 15.2366 26.8558 15.0804 25.6067 15.0804H23.5769C22.3278 15.0804 21.5471 15.2366 21.0787 15.705C20.6103 16.1734 20.4541 17.1102 20.4541 18.3593V21.0137C20.4541 22.2628 21.5471 23.1996 23.733 23.5119C24.3576 23.5119 24.6698 23.668 24.9821 23.668C27.6365 24.1365 29.354 24.6049 30.1347 25.3856C31.0715 26.1663 31.3838 27.4154 31.3838 28.9767ZM65.8903 29.289C65.8903 29.4452 65.8903 29.6013 65.8903 29.7574C65.8903 30.0697 65.8903 30.382 65.8903 30.6943C65.8903 33.1925 65.4219 34.91 64.4851 36.1591C63.5483 37.2521 61.9869 37.8766 60.1132 37.8766H57.615C56.6782 37.8766 55.7414 37.7205 54.8045 37.4082C54.0238 36.9398 53.3993 36.4714 52.9309 35.6907C52.6186 35.2223 52.3063 34.4416 52.1502 33.6609C51.994 32.8802 51.8379 31.7872 51.8379 30.0697V29.289V21.0137C51.8379 18.0471 52.4625 15.8611 53.3993 14.4559C54.4923 13.2068 56.0536 12.5822 58.3957 12.5822H59.6448C61.8307 12.5822 63.3921 13.0506 64.4851 14.1436C65.4219 15.3927 65.8903 17.1102 65.8903 19.7646C65.8903 20.0769 65.8903 20.233 65.8903 20.3891C65.8903 20.5453 65.8903 20.7014 65.8903 20.8576H63.236V20.5453C63.236 18.3593 62.9237 16.9541 62.4553 16.1734C61.8307 15.3927 60.8939 15.0804 59.4887 15.0804H58.2396C56.8343 15.0804 55.8975 15.3927 55.2729 16.1734C54.8045 16.9541 54.4923 18.5155 54.4923 21.0137V29.289C54.4923 32.0995 54.8045 33.817 55.2729 34.4416C55.7414 35.0661 56.6782 35.5345 58.2396 35.5345H59.4887C61.0501 35.5345 61.9869 35.0661 62.4553 34.4416C62.9237 33.817 63.236 32.2556 63.236 29.9136V29.289H65.8903ZM73.5411 35.8468C74.7902 35.8468 75.5709 35.5345 76.0393 35.0661C76.6639 34.4416 76.82 33.5048 76.82 32.2556C76.82 30.8504 76.6639 30.0697 76.1955 29.6013C75.7271 29.1329 74.9464 28.8206 73.6973 28.8206C72.6043 28.8206 71.6675 29.1329 71.3552 29.6013C70.8868 30.0697 70.7306 31.1627 70.7306 32.5679C70.7306 33.817 70.8868 34.5977 71.3552 35.0661C71.8236 35.6907 72.4482 35.8468 73.5411 35.8468ZM76.82 37.5643V36.003C76.3516 36.6275 75.8832 37.2521 75.2586 37.4082C74.6341 37.7205 73.6973 37.8766 72.6043 37.8766C71.199 37.8766 70.1061 37.5643 69.4815 36.7837C68.7008 36.1591 68.3886 35.0661 68.3886 33.5048V31.1627C68.3886 29.7574 68.7008 28.6645 69.4815 27.8838C70.2622 27.1031 71.3552 26.7908 72.9166 26.7908C73.8534 26.7908 74.6341 26.9469 75.2586 27.1031C75.8832 27.4154 76.3516 27.7276 76.82 28.3522V25.5417C76.82 24.1365 76.6639 23.1996 76.1955 22.7312C75.8832 22.2628 75.1025 21.9505 73.8534 21.9505C72.9166 21.9505 72.1359 22.1067 71.8236 22.5751C71.3552 22.8873 71.199 23.3558 71.199 24.1365V25.0733H68.857V24.2926C68.857 22.7312 69.3254 21.6382 70.1061 21.0137C70.8868 20.233 72.1359 19.9207 74.0095 19.9207C75.8832 19.9207 77.1323 20.233 77.913 21.0137C78.6937 21.7944 79.006 23.0435 79.006 25.0733V37.5643H76.82ZM85.0954 27.5715V30.382C85.0954 32.4118 85.4076 33.817 85.876 34.5977C86.5006 35.3784 87.2813 35.8468 88.6865 35.8468C89.7795 35.8468 90.5602 35.3784 90.8725 34.5977C91.3409 33.817 91.6532 32.4118 91.6532 30.382V27.4154C91.6532 25.3856 91.3409 23.9803 90.8725 23.1996C90.5602 22.4189 89.7795 22.1067 88.6865 22.1067C87.2813 22.1067 86.5006 22.4189 85.876 23.1996C85.4076 23.9803 85.0954 25.5417 85.0954 27.5715ZM93.9952 30.5381C93.9952 33.1925 93.5268 35.0661 92.9023 36.1591C92.1216 37.4082 90.8725 37.8766 89.3111 37.8766C88.3743 37.8766 87.5936 37.7205 86.8129 37.4082C86.1883 36.9398 85.5638 36.4714 85.0954 35.6907V43.966H82.9094V20.233H84.9392V22.4189C85.5638 21.4821 86.1883 20.8576 86.8129 20.5453C87.5936 20.233 88.3743 19.9207 89.3111 19.9207C91.0286 19.9207 92.1216 20.5453 92.9023 21.7944C93.5268 22.8873 93.9952 24.9171 93.9952 27.8838V30.5381ZM97.2741 37.5643V20.233H99.4601V37.5643H97.2741ZM97.2741 15.705V12.8945H99.4601V15.705H97.2741ZM103.676 22.4189H101.958V20.233H103.676V16.1734H106.018V20.233H111.639V22.4189H106.018V32.2556C106.018 33.817 106.174 34.7539 106.33 35.2223C106.642 35.6907 107.267 35.8468 108.048 35.8468C108.828 35.8468 109.297 35.6907 109.609 35.2223C109.921 34.91 110.077 34.1293 110.077 33.1925V31.6311H112.107V32.8802C112.107 34.5977 111.795 36.003 111.014 36.7837C110.39 37.5643 109.297 37.8766 107.735 37.8766C106.33 37.8766 105.237 37.5643 104.613 36.7837C103.988 36.1591 103.676 34.7539 103.676 32.8802V22.4189ZM119.446 35.8468C120.695 35.8468 121.632 35.5345 122.1 35.0661C122.569 34.4416 122.881 33.5048 122.881 32.2556C122.881 30.8504 122.725 30.0697 122.256 29.6013C121.788 29.1329 121.007 28.8206 119.758 28.8206C118.509 28.8206 117.728 29.1329 117.26 29.6013C116.948 30.0697 116.635 31.1627 116.635 32.5679C116.635 33.817 116.948 34.5977 117.26 35.0661C117.728 35.6907 118.509 35.8468 119.446 35.8468ZM122.725 37.5643V36.003C122.412 36.6275 121.944 37.2521 121.319 37.4082C120.539 37.7205 119.758 37.8766 118.665 37.8766C117.26 37.8766 116.167 37.5643 115.386 36.7837C114.762 36.1591 114.293 35.0661 114.293 33.5048V31.1627C114.293 29.7574 114.762 28.6645 115.542 27.8838C116.323 27.1031 117.416 26.7908 118.977 26.7908C119.914 26.7908 120.695 26.9469 121.319 27.1031C121.944 27.4154 122.412 27.7276 122.725 28.3522V25.5417C122.725 24.1365 122.569 23.1996 122.256 22.7312C121.788 22.2628 121.007 21.9505 119.914 21.9505C118.821 21.9505 118.197 22.1067 117.728 22.5751C117.416 22.8873 117.104 23.3558 117.104 24.1365V25.0733H114.918V24.2926C114.918 22.7312 115.23 21.6382 116.011 21.0137C116.948 20.233 118.197 19.9207 119.914 19.9207C121.788 19.9207 123.193 20.233 123.818 21.0137C124.598 21.7944 124.911 23.0435 124.911 25.0733V37.5643H122.725ZM128.814 37.5643V12.4261H131V37.5643H128.814Z" fill="black"/>
<path d="M42.1574 0.715698V51.4606H40.2837V0.715698H42.1574Z" fill="#890000"/>
</svg>
