<svg width="131" height="51" viewBox="0 0 131 51" fill="none" xmlns="http://www.w3.org/2000/svg">
<path d="M6.24553 36.8486L0 12.1787H2.65435L7.80691 33.5697L13.2718 12.1787H15.77L9.05602 36.8486H6.24553ZM31.3838 28.261V31.8522C31.3838 33.7258 30.9154 34.9749 29.9785 35.9118C29.0417 36.6924 27.4803 37.1609 25.6067 37.1609H23.2646C21.0787 37.1609 19.5173 36.6924 18.5805 35.7556C17.7998 34.6627 17.3313 32.789 17.3313 30.1346V28.8855H19.8296V30.9153C19.8296 32.3206 20.1418 33.4135 20.6102 33.882C21.0787 34.5065 22.0155 34.8188 23.2646 34.8188H25.7628C26.8558 34.8188 27.6365 34.5065 28.1049 34.0381C28.5733 33.5697 28.8856 32.6329 28.8856 31.3837V29.354C28.8856 28.7294 28.7294 28.261 28.7294 27.9487C28.7294 27.6364 28.5733 27.3242 28.4172 27.0119C28.1049 26.3873 26.6996 25.9189 24.2014 25.4505C23.733 25.4505 23.2646 25.2944 23.1085 25.2944C22.9523 25.2944 22.7962 25.2944 22.64 25.1382C21.0787 24.9821 20.1418 24.6698 19.6734 24.3575C19.0489 24.0452 18.5805 23.4207 18.2682 22.7961C17.9559 22.1716 17.7998 21.2348 17.7998 20.2979V17.1752C17.7998 15.3015 18.2682 14.0524 19.205 13.1156C20.1418 12.3349 21.7032 11.8665 23.733 11.8665H25.4505C27.6365 11.8665 29.1979 12.3349 30.1347 13.2717C30.9154 14.2085 31.3838 15.9261 31.3838 18.112V18.8927H28.8856V18.112C28.8856 16.7068 28.5733 15.6138 28.1049 15.1454C27.6365 14.5208 26.8558 14.3647 25.6067 14.3647H23.5769C22.3278 14.3647 21.5471 14.5208 21.0787 14.9892C20.6102 15.4576 20.4541 16.3945 20.4541 17.6436V20.2979C20.4541 21.547 21.5471 22.4839 23.733 22.7961C24.3576 22.7961 24.6698 22.9523 24.9821 22.9523C27.6365 23.4207 29.354 23.8891 30.1347 24.6698C31.0715 25.4505 31.3838 26.6996 31.3838 28.261ZM65.8903 28.5733C65.8903 28.7294 65.8903 28.8855 65.8903 29.0417C65.8903 29.354 65.8903 29.6662 65.8903 29.9785C65.8903 32.4767 65.4219 34.1942 64.4851 35.4433C63.5483 36.5363 61.9869 37.1609 60.1132 37.1609H57.615C56.6782 37.1609 55.7414 37.0047 54.8045 36.6924C54.0238 36.224 53.3993 35.7556 52.9309 34.9749C52.6186 34.5065 52.3063 33.7258 52.1502 32.9451C51.994 32.1644 51.8379 31.0715 51.8379 29.354V28.5733V20.2979C51.8379 17.3313 52.4625 15.1454 53.3993 13.7401C54.4923 12.491 56.0536 11.8665 58.3957 11.8665H59.6448C61.8307 11.8665 63.3921 12.3349 64.4851 13.4278C65.4219 14.677 65.8903 16.3945 65.8903 19.0488C65.8903 19.3611 65.8903 19.5172 65.8903 19.6734C65.8903 19.8295 65.8903 19.9857 65.8903 20.1418H63.236V19.8295C63.236 17.6436 62.9237 16.2383 62.4553 15.4576C61.8307 14.677 60.8939 14.3647 59.4887 14.3647H58.2396C56.8343 14.3647 55.8975 14.677 55.2729 15.4576C54.8045 16.2383 54.4923 17.7997 54.4923 20.2979V28.5733C54.4923 31.3837 54.8045 33.1013 55.2729 33.7258C55.7414 34.3504 56.6782 34.8188 58.2396 34.8188H59.4887C61.0501 34.8188 61.9869 34.3504 62.4553 33.7258C62.9237 33.1013 63.236 31.5399 63.236 29.1978V28.5733H65.8903ZM73.5411 35.1311C74.7902 35.1311 75.5709 34.8188 76.0393 34.3504C76.6639 33.7258 76.82 32.789 76.82 31.5399C76.82 30.1346 76.6639 29.354 76.1955 28.8855C75.7271 28.4171 74.9464 28.1048 73.6973 28.1048C72.6043 28.1048 71.6675 28.4171 71.3552 28.8855C70.8868 29.354 70.7306 30.4469 70.7306 31.8522C70.7306 33.1013 70.8868 33.882 71.3552 34.3504C71.8236 34.9749 72.4482 35.1311 73.5411 35.1311ZM76.82 36.8486V35.2872C76.3516 35.9118 75.8832 36.5363 75.2586 36.6924C74.6341 37.0047 73.6973 37.1609 72.6043 37.1609C71.199 37.1609 70.1061 36.8486 69.4815 36.0679C68.7008 35.4433 68.3886 34.3504 68.3886 32.789V30.4469C68.3886 29.0417 68.7008 27.9487 69.4815 27.168C70.2622 26.3873 71.3552 26.075 72.9166 26.075C73.8534 26.075 74.6341 26.2312 75.2586 26.3873C75.8832 26.6996 76.3516 27.0119 76.82 27.6364V24.8259C76.82 23.4207 76.6639 22.4839 76.1955 22.0155C75.8832 21.547 75.1025 21.2348 73.8534 21.2348C72.9166 21.2348 72.1359 21.3909 71.8236 21.8593C71.3552 22.1716 71.199 22.64 71.199 23.4207V24.3575H68.857V23.5768C68.857 22.0155 69.3254 20.9225 70.1061 20.2979C70.8868 19.5172 72.1359 19.205 74.0095 19.205C75.8832 19.205 77.1323 19.5172 77.913 20.2979C78.6937 21.0786 79.006 22.3277 79.006 24.3575V36.8486H76.82ZM85.0953 26.8557V29.6662C85.0953 31.696 85.4076 33.1013 85.876 33.882C86.5006 34.6627 87.2813 35.1311 88.6865 35.1311C89.7795 35.1311 90.5602 34.6627 90.8725 33.882C91.3409 33.1013 91.6532 31.696 91.6532 29.6662V26.6996C91.6532 24.6698 91.3409 23.2646 90.8725 22.4839C90.5602 21.7032 89.7795 21.3909 88.6865 21.3909C87.2813 21.3909 86.5006 21.7032 85.876 22.4839C85.4076 23.2646 85.0953 24.8259 85.0953 26.8557ZM93.9952 29.8224C93.9952 32.4767 93.5268 34.3504 92.9023 35.4433C92.1216 36.6924 90.8725 37.1609 89.3111 37.1609C88.3743 37.1609 87.5936 37.0047 86.8129 36.6924C86.1883 36.224 85.5638 35.7556 85.0953 34.9749V43.2503H82.9094V19.5172H84.9392V21.7032C85.5638 20.7663 86.1883 20.1418 86.8129 19.8295C87.5936 19.5172 88.3743 19.205 89.3111 19.205C91.0286 19.205 92.1216 19.8295 92.9023 21.0786C93.5268 22.1716 93.9952 24.2014 93.9952 27.168V29.8224ZM97.2741 36.8486V19.5172H99.4601V36.8486H97.2741ZM97.2741 14.9892V12.1787H99.4601V14.9892H97.2741ZM103.676 21.7032H101.958V19.5172H103.676V15.4576H106.018V19.5172H111.639V21.7032H106.018V31.5399C106.018 33.1013 106.174 34.0381 106.33 34.5065C106.642 34.9749 107.267 35.1311 108.048 35.1311C108.828 35.1311 109.297 34.9749 109.609 34.5065C109.921 34.1942 110.077 33.4135 110.077 32.4767V30.9153H112.107V32.1644C112.107 33.882 111.795 35.2872 111.014 36.0679C110.39 36.8486 109.297 37.1609 107.735 37.1609C106.33 37.1609 105.237 36.8486 104.613 36.0679C103.988 35.4433 103.676 34.0381 103.676 32.1644V21.7032ZM119.446 35.1311C120.695 35.1311 121.632 34.8188 122.1 34.3504C122.569 33.7258 122.881 32.789 122.881 31.5399C122.881 30.1346 122.725 29.354 122.256 28.8855C121.788 28.4171 121.007 28.1048 119.758 28.1048C118.509 28.1048 117.728 28.4171 117.26 28.8855C116.948 29.354 116.635 30.4469 116.635 31.8522C116.635 33.1013 116.948 33.882 117.26 34.3504C117.728 34.9749 118.509 35.1311 119.446 35.1311ZM122.725 36.8486V35.2872C122.412 35.9118 121.944 36.5363 121.319 36.6924C120.539 37.0047 119.758 37.1609 118.665 37.1609C117.26 37.1609 116.167 36.8486 115.386 36.0679C114.762 35.4433 114.293 34.3504 114.293 32.789V30.4469C114.293 29.0417 114.762 27.9487 115.542 27.168C116.323 26.3873 117.416 26.075 118.977 26.075C119.914 26.075 120.695 26.2312 121.319 26.3873C121.944 26.6996 122.412 27.0119 122.725 27.6364V24.8259C122.725 23.4207 122.569 22.4839 122.256 22.0155C121.788 21.547 121.007 21.2348 119.914 21.2348C118.821 21.2348 118.197 21.3909 117.728 21.8593C117.416 22.1716 117.104 22.64 117.104 23.4207V24.3575H114.918V23.5768C114.918 22.0155 115.23 20.9225 116.011 20.2979C116.948 19.5172 118.197 19.205 119.914 19.205C121.788 19.205 123.193 19.5172 123.818 20.2979C124.598 21.0786 124.911 22.3277 124.911 24.3575V36.8486H122.725ZM128.814 36.8486V11.7103H131V36.8486H128.814Z" fill="white"/>
<path d="M42.1574 0V50.7449H40.2837V0H42.1574Z" fill="#890000"/>
</svg>
