<svg width="176" height="26" viewBox="0 0 176 26" fill="none" xmlns="http://www.w3.org/2000/svg">
<g clip-path="url(#clip0_104_219)">
<path d="M10.9922 25.0964H5.74099L0 8.92213V6.64563H3.09933L8.38263 21.5304L13.7463 6.64563H16.8455V8.69922L10.9922 25.0964Z" fill="#005DFF"/>
<path d="M24.4012 6.64563H20.7232V25.0964H24.4012V6.64563Z" fill="#005DFF"/>
<path d="M41.439 25.0964V15.2263C41.439 12.4563 39.0302 10.2912 36.3082 10.2912H32.3658V25.0964H28.6884V6.64563H36.3082C40.9813 6.64563 45.1164 10.4027 45.1164 15.2263V25.0964H41.439Z" fill="#005DFF"/>
<path d="M63.0297 10.2912H56.8151C54.0208 10.2912 51.8369 12.6791 51.8369 15.3775V19.2857L48.1594 15.3775C48.1594 10.7449 51.9493 6.64563 56.8151 6.64563H63.0297V10.2912Z" fill="#005DFF"/>
<path d="M63.0297 25.0989H56.8151C51.9493 25.0989 48.1594 20.9996 48.1594 16.3671V15.38L51.8369 16.3671C51.8369 19.0654 54.0208 21.4533 56.8151 21.4533H63.0297V25.0989Z" fill="#005DFF"/>
<path d="M78.3186 25.0972L71.9191 17.806H70.2651V25.0972H66.5877V0H70.2651V14.041H71.9191L78.3507 6.64642H80.7755V9.16171L75.2112 15.9195L80.7755 22.6456V25.0972H78.3186Z" fill="#005DFF"/>
<path d="M92.25 25.6294C86.8862 25.6294 82.8634 21.2994 82.8634 15.9822C82.8634 10.665 86.8862 6.37476 92.25 6.37476C97.613 6.37476 101.596 10.665 101.596 15.9822C101.596 21.2994 97.613 25.6294 92.25 25.6294ZM92.25 10.0601C88.9177 10.0601 86.5811 12.6789 86.5811 15.9822C86.5811 19.2855 88.9177 21.9441 92.25 21.9441C95.5823 21.9441 97.8786 19.2855 97.8786 15.9822C97.8786 12.6789 95.5823 10.0601 92.25 10.0601Z" fill="#005DFF"/>
<path d="M24.4012 0H20.7232V3.64558H24.4012V0Z" fill="#005DFF"/>
<path d="M108.549 21.9442H104.872V25.5898H108.549V21.9442Z" fill="#005DFF"/>
<path d="M108.549 8.54138H104.872V12.187H108.549V8.54138Z" fill="#005DFF"/>
<path d="M122.392 8.49609V13.2608H121.405V10.1256L120.051 12.3078H119.929L118.584 10.1351V13.2608H117.596V8.49609H118.631L119.994 10.6973L121.358 8.49609H122.392Z" fill="#005DFF"/>
<path d="M127.384 8.49607H128.399V13.2607H127.384V12.5746C127.001 13.1146 126.453 13.3846 125.738 13.3846C125.092 13.3846 124.54 13.1431 124.083 12.6604C123.625 12.1711 123.396 11.5772 123.396 10.8783C123.396 10.1732 123.625 9.57921 124.083 9.09639C124.54 8.61359 125.092 8.37219 125.738 8.37219C126.453 8.37219 127.001 8.639 127.384 9.17265V8.49607ZM124.835 11.9742C125.118 12.2602 125.471 12.4031 125.898 12.4031C126.324 12.4031 126.678 12.2602 126.961 11.9742C127.242 11.682 127.384 11.3167 127.384 10.8783C127.384 10.4401 127.242 10.0779 126.961 9.79206C126.678 9.49982 126.324 9.3537 125.898 9.3537C125.471 9.3537 125.118 9.49982 124.835 9.79206C124.553 10.0779 124.412 10.4401 124.412 10.8783C124.412 11.3167 124.553 11.682 124.835 11.9742Z" fill="#005DFF"/>
<path d="M132.338 8.37219C132.984 8.37219 133.535 8.61677 133.993 9.10592C134.451 9.58874 134.679 10.1795 134.679 10.8783C134.679 11.5835 134.451 12.1776 133.993 12.6604C133.535 13.1431 132.984 13.3846 132.338 13.3846C131.624 13.3846 131.075 13.1177 130.693 12.5841V15.1665H129.677V8.49607H130.693V9.18219C131.075 8.64219 131.624 8.37219 132.338 8.37219ZM131.116 11.9742C131.397 12.2602 131.752 12.4031 132.179 12.4031C132.604 12.4031 132.959 12.2602 133.24 11.9742C133.523 11.682 133.664 11.3167 133.664 10.8783C133.664 10.4401 133.523 10.0779 133.24 9.79206C132.959 9.49982 132.604 9.3537 132.179 9.3537C131.752 9.3537 131.397 9.49982 131.116 9.79206C130.833 10.0779 130.693 10.4401 130.693 10.8783C130.693 11.3167 130.833 11.682 131.116 11.9742Z" fill="#005DFF"/>
<path d="M139.85 13.2608H138.637L136.709 11.0595V13.2608H135.693V8.49609H136.709V10.6021L138.534 8.49609H139.775L137.707 10.8308L139.85 13.2608Z" fill="#005DFF"/>
<path d="M141.051 11.3167C141.125 11.6788 141.298 11.9584 141.568 12.1553C141.837 12.3459 142.166 12.4412 142.555 12.4412C143.094 12.4412 143.498 12.2442 143.768 11.8504L144.605 12.3459C144.141 13.0383 143.454 13.3846 142.546 13.3846C141.781 13.3846 141.163 13.1495 140.693 12.6794C140.223 12.203 139.988 11.6026 139.988 10.8783C139.988 10.1669 140.219 9.57288 140.683 9.09639C141.147 8.61359 141.743 8.37219 142.47 8.37219C143.16 8.37219 143.724 8.61677 144.162 9.10592C144.607 9.59507 144.83 10.1891 144.83 10.8879C144.83 10.9959 144.818 11.1389 144.793 11.3167H141.051ZM141.041 10.4781H143.805C143.737 10.0906 143.577 9.79839 143.326 9.60148C143.081 9.40449 142.793 9.30603 142.461 9.30603C142.085 9.30603 141.771 9.4109 141.521 9.62055C141.269 9.83019 141.11 10.116 141.041 10.4781Z" fill="#005DFF"/>
<path d="M149.226 8.49609V9.48711H147.694V13.2608H146.678V9.48711H145.136V8.49609H149.226Z" fill="#005DFF"/>
<path d="M154.192 8.49609V13.2608H153.177V9.46804H151.023V13.2608H150.008V8.49609H154.192Z" fill="#005DFF"/>
<path d="M159.433 8.49609V13.2608H158.418V9.48711H156.847V11.2596C156.847 12.0155 156.684 12.5523 156.358 12.8701C156.032 13.1877 155.568 13.3179 154.966 13.2608V12.2982C155.255 12.3491 155.471 12.2887 155.615 12.1172C155.759 11.9457 155.831 11.6439 155.831 11.212V8.49609H159.433Z" fill="#005DFF"/>
<path d="M161.509 11.3167C161.585 11.6788 161.757 11.9584 162.027 12.1553C162.296 12.3459 162.626 12.4412 163.015 12.4412C163.553 12.4412 163.957 12.2442 164.227 11.8504L165.065 12.3459C164.6 13.0383 163.914 13.3846 163.004 13.3846C162.24 13.3846 161.622 13.1495 161.152 12.6794C160.682 12.203 160.447 11.6026 160.447 10.8783C160.447 10.1669 160.679 9.57288 161.143 9.09639C161.607 8.61359 162.202 8.37219 162.93 8.37219C163.62 8.37219 164.184 8.61677 164.622 9.10592C165.067 9.59507 165.29 10.1891 165.29 10.8879C165.29 10.9959 165.277 11.1389 165.252 11.3167H161.509ZM161.5 10.4781H164.265C164.196 10.0906 164.036 9.79839 163.786 9.60148C163.541 9.40449 163.253 9.30603 162.92 9.30603C162.544 9.30603 162.231 9.4109 161.979 9.62055C161.729 9.83019 161.57 10.116 161.5 10.4781Z" fill="#005DFF"/>
<path d="M167.048 7.82909V6.93335H169.682V7.82909H167.048ZM169.682 8.49614H170.462V13.2608H169.465V10.2305L167.058 13.2608H166.277V8.49614H167.275V11.5169L169.682 8.49614Z" fill="#005DFF"/>
<path d="M173.953 13.3846C173.245 13.3846 172.653 13.1431 172.177 12.6604C171.706 12.1776 171.471 11.5835 171.471 10.8783C171.471 10.1669 171.706 9.57288 172.177 9.09639C172.653 8.61359 173.245 8.37219 173.953 8.37219C174.412 8.37219 174.828 8.48336 175.205 8.70569C175.581 8.92808 175.863 9.22665 176.051 9.60148L175.176 10.116C175.07 9.88731 174.906 9.70947 174.688 9.58241C174.474 9.44903 174.227 9.3823 173.944 9.3823C173.531 9.3823 173.182 9.52521 172.901 9.81113C172.625 10.097 172.487 10.4527 172.487 10.8783C172.487 11.304 172.625 11.6598 172.901 11.9456C173.182 12.2316 173.531 12.3745 173.944 12.3745C174.22 12.3745 174.468 12.3077 174.688 12.1744C174.913 12.041 175.082 11.863 175.195 11.6407L176.07 12.1458C175.869 12.5269 175.581 12.8287 175.205 13.0511C174.828 13.2734 174.412 13.3846 173.953 13.3846Z" fill="#005DFF"/>
<path d="M119.816 25.5673C119.126 25.5673 118.54 25.3258 118.057 24.843C117.575 24.3602 117.333 23.7663 117.333 23.0611C117.333 22.356 117.575 21.7619 118.057 21.2791C118.54 20.7963 119.126 20.5549 119.816 20.5549C120.511 20.5549 121.098 20.7963 121.574 21.2791C122.057 21.7619 122.298 22.356 122.298 23.0611C122.298 23.7663 122.057 24.3602 121.574 24.843C121.098 25.3258 120.511 25.5673 119.816 25.5673ZM118.772 24.1379C119.054 24.4237 119.402 24.5667 119.816 24.5667C120.23 24.5667 120.578 24.4237 120.86 24.1379C121.142 23.852 121.282 23.4931 121.282 23.0611C121.282 22.6291 121.142 22.2702 120.86 21.9843C120.578 21.6984 120.23 21.5555 119.816 21.5555C119.402 21.5555 119.054 21.6984 118.772 21.9843C118.49 22.2702 118.349 22.6291 118.349 23.0611C118.349 23.4931 118.49 23.852 118.772 24.1379Z" fill="#005DFF"/>
<path d="M127.174 25.4433H125.999L124.833 23.8138L123.658 25.4433H122.473L124.24 22.9944L122.566 20.6787H123.742L124.823 22.1844L125.905 20.6787H127.09L125.416 23.0038L127.174 25.4433Z" fill="#005DFF"/>
<path d="M130.611 20.5549C131.257 20.5549 131.809 20.7995 132.267 21.2887C132.724 21.7715 132.953 22.3623 132.953 23.0611C132.953 23.7663 132.724 24.3602 132.267 24.843C131.809 25.3258 131.257 25.5673 130.611 25.5673C129.897 25.5673 129.348 25.3005 128.966 24.7668V27.3493H127.95V20.6788H128.966V21.3649C129.348 20.8249 129.897 20.5549 130.611 20.5549ZM129.389 24.157C129.671 24.4428 130.025 24.5858 130.452 24.5858C130.878 24.5858 131.232 24.4428 131.514 24.157C131.796 23.8647 131.937 23.4994 131.937 23.0611C131.937 22.6227 131.796 22.2606 131.514 21.9748C131.232 21.6826 130.878 21.5364 130.452 21.5364C130.025 21.5364 129.671 21.6826 129.389 21.9748C129.107 22.2606 128.966 22.6227 128.966 23.0611C128.966 23.4994 129.107 23.8647 129.389 24.157Z" fill="#005DFF"/>
<path d="M137.692 20.6788H138.706V25.4434H137.692V24.7573C137.309 25.2972 136.76 25.5673 136.045 25.5673C135.4 25.5673 134.849 25.3258 134.39 24.843C133.933 24.3539 133.704 23.7599 133.704 23.0611C133.704 22.356 133.933 21.7619 134.39 21.2791C134.849 20.7963 135.4 20.5549 136.045 20.5549C136.76 20.5549 137.309 20.8217 137.692 21.3554V20.6788ZM135.143 24.157C135.425 24.4428 135.779 24.5858 136.206 24.5858C136.632 24.5858 136.986 24.4428 137.268 24.157C137.55 23.8647 137.692 23.4994 137.692 23.0611C137.692 22.6227 137.55 22.2606 137.268 21.9748C136.986 21.6826 136.632 21.5364 136.206 21.5364C135.779 21.5364 135.425 21.6826 135.143 21.9748C134.86 22.2606 134.72 22.6227 134.72 23.0611C134.72 23.4994 134.86 23.8647 135.143 24.157Z" fill="#005DFF"/>
<path d="M143.153 20.6787H144.169V25.4433H143.153V23.547H141V25.4433H139.985V20.6787H141V22.5751H143.153V20.6787Z" fill="#005DFF"/>
<path d="M147.491 22.2987C147.993 22.2987 148.404 22.4448 148.723 22.737C149.043 23.0229 149.203 23.4009 149.203 23.871C149.203 24.3347 149.043 24.7128 148.723 25.005C148.404 25.2972 147.993 25.4433 147.491 25.4433H145.441V20.6787H146.457V22.2987H147.491ZM149.767 20.6787H150.783V25.4433H149.767V20.6787ZM147.501 24.519C147.702 24.519 147.868 24.4587 147.999 24.338C148.137 24.2172 148.206 24.0616 148.206 23.871C148.206 23.6741 148.137 23.5184 147.999 23.404C147.868 23.2834 147.702 23.223 147.501 23.223H146.457V24.519H147.501Z" fill="#005DFF"/>
</g>
<defs>
<clipPath id="clip0_104_219">
<rect width="176" height="26" fill="white"/>
</clipPath>
</defs>
</svg>
