<svg width="142" height="45" viewBox="0 0 142 45" fill="none" xmlns="http://www.w3.org/2000/svg">
<path d="M13.4048 18.0717L15.0123 12.8246C15.0123 12.8246 12.0098 11.4541 7.95784 11.4541C3.90584 11.4541 0.199278 14.169 0.199278 18.2152C0.199278 22.2615 5.22108 24.3629 5.22108 24.3629C5.22108 24.3629 11.5714 26.621 11.5714 29.2706C11.5714 31.9203 7.83829 31.9855 7.83829 31.9855C3.08217 31.9855 1.72708 25.0808 1.72708 25.0808H1.27538L0 31.1241C1.5278 32.0116 4.55684 32.5598 7.51942 32.5598C10.482 32.5598 16.022 30.85 16.022 25.8509C16.022 20.8518 10.2695 19.39 10.2695 19.39C10.2695 19.39 4.53026 17.7323 4.53026 14.8216C4.53026 11.9109 8.14385 12.0415 8.14385 12.0415C12.3686 12.0415 12.7671 18.0717 12.7671 18.0717H13.4048Z" fill="white"/>
<path d="M24.0463 12.9814H23.6477C20.9907 18.2546 17.0184 19.4946 17.0184 19.4946V19.6904H18.5993V29.1664C18.5993 29.1664 18.5595 32.6122 22.1066 32.6122C25.6538 32.6122 27.3277 29.1795 27.3277 29.1795L27.0487 28.9054C27.0487 28.9054 26.5439 29.8451 25.4147 29.8451C24.2854 29.8451 24.0463 28.5008 24.0463 28.5008V19.6512H26.8494V19.103H24.0463V12.9814Z" fill="white"/>
<path d="M44.3593 18.4636V19.1031C44.3593 19.1031 45.9669 19.077 45.9669 20.6825V27.6393H45.9801V30.2629C45.9801 31.8683 44.3725 31.8422 44.3725 31.8422V32.5589H51.9185V31.8422C51.9185 31.8422 50.351 31.8683 50.351 30.2629V27.3783V23.2936C50.5222 22.8846 51.478 20.6693 52.3703 20.6693C52.796 20.6693 53.0894 21.0142 53.4225 21.4054C53.8588 21.9178 54.3627 22.5097 55.3196 22.5097C57.007 22.5097 57.1529 21.2436 57.1529 20.5127V20.4789C57.1537 19.734 57.1549 18.1894 54.6818 18.1894C52.417 18.1894 50.6604 20.377 50.3378 20.8057V18.4244L44.3593 18.4636Z" fill="white"/>
<path d="M113.721 19.0788V18.4392L119.7 18.4001V20.7814C120.023 20.3526 121.779 18.165 124.044 18.165C126.517 18.165 126.516 19.7096 126.515 20.4546V20.4884C126.515 21.2193 126.369 22.4854 124.682 22.4854C123.725 22.4854 123.221 21.8935 122.785 21.3811C122.452 20.9899 122.158 20.645 121.732 20.645C120.84 20.645 119.871 22.8603 119.7 23.2693V27.354H119.713V30.2386C119.713 31.844 121.281 31.8179 121.281 31.8179V32.575H113.735V31.8179C113.735 31.8179 115.342 31.844 115.342 30.2386V27.615H115.329V20.6582C115.329 19.0527 113.721 19.0788 113.721 19.0788Z" fill="white"/>
<path d="M61.5505 32.5589V31.9728C61.5505 31.9728 60.1103 31.9962 59.9562 30.6369V27.5089H59.9433V24.1152C59.9433 21.9485 60.8333 20.5388 62.5604 20.5388C64.2874 20.5388 64.2209 22.1312 64.2209 22.1312V27.6263H64.2341V30.3934C64.2341 31.9989 62.7063 31.9728 62.7063 31.9728V32.5589H64.3006H66.4129H68.5252H70.1196V31.9728C70.1196 31.9728 68.6793 31.9962 68.5252 30.6369V27.6263H68.5388V22.2814C68.9249 21.1956 69.7098 20.5519 70.8768 20.5519C72.6039 20.5519 72.5377 22.1443 72.5377 22.1443V27.6394H72.5506V30.4066C72.5506 32.012 71.0228 31.9859 71.0228 31.9859V32.5589H72.6171H74.7294H76.8417H78.436V31.9859C78.436 31.9859 76.9958 32.0093 76.8417 30.65V27.6394H76.8553V21.322C76.8553 20.069 74.8757 18.6332 72.4844 18.6332C70.6776 18.6332 69.4471 19.5869 68.4781 20.92C68.1291 19.777 66.3145 18.6201 64.1679 18.6201C61.7766 18.6201 60.3948 20.2908 59.2923 22.3009C58.2027 24.311 56.5687 24.4023 56.5687 24.4023H55.7184V27.7046H55.7316V30.6369C55.5779 31.9962 54.1373 31.9728 54.1373 31.9728V32.5589H55.7316H57.8439H59.9562H61.5505Z" fill="white"/>
<path fill-rule="evenodd" clip-rule="evenodd" d="M86.3952 32.575H78.9259V31.8359C80.2583 31.8359 80.4303 31.044 80.4303 30.3577V16.4197C80.4303 15.7861 80.0863 13.8855 78.0658 13.8855V13.6215C80.5019 13.1816 85.9115 12.1538 85.9115 11.5625V20.0098C86.5205 19.4642 88.1899 18.3731 89.9956 18.3731C92.2527 18.3731 95.5842 19.8514 95.5842 24.2862C95.5842 29.1433 92.0916 32.6278 87.7385 32.6278C87.2537 32.6278 86.8077 32.5957 86.3952 32.542V32.575ZM87.7385 32.1527C86.3629 32.1527 85.9473 30.956 85.9115 30.3577V20.6433C85.9115 20.3089 86.2769 19.6402 87.7385 19.6402C89.5656 19.6402 90.3182 20.9073 90.3182 25.5005C90.3182 30.0937 89.4582 32.1527 87.7385 32.1527Z" fill="white"/>
<path fill-rule="evenodd" clip-rule="evenodd" d="M35.8236 32.6815C40.2004 32.6815 43.7482 29.5258 43.7482 25.6332C43.7482 21.7405 40.2004 18.5849 35.8236 18.5849C31.4469 18.5849 27.8988 21.7405 27.8988 25.6332C27.8988 29.5258 31.4469 32.6815 35.8236 32.6815ZM35.8236 19.0766C34.8561 19.0766 34.0718 19.8472 34.0718 20.7977V30.4686C34.0718 31.4192 34.8561 32.1897 35.8236 32.1897C36.7911 32.1897 37.5754 31.4192 37.5754 30.4686V20.7977C37.5754 19.8472 36.7911 19.0766 35.8236 19.0766Z" fill="white"/>
<path fill-rule="evenodd" clip-rule="evenodd" d="M141.415 25.6337C141.415 29.5264 137.867 32.682 133.49 32.682C132.088 32.682 130.771 32.3583 129.629 31.7902L129.581 31.8562H129.412C129.073 31.9486 128.396 32.2776 128.396 32.8543C128.396 33.5197 128.678 34.2961 133.306 33.9634C136.523 33.7321 141.547 33.8524 141.377 38.7322C141.306 40.7839 139.989 44.2552 133.08 44.1664C130.427 44.1664 126.082 43.1683 126.025 39.7857C126.025 39.2867 126.093 38.2553 126.815 37.9004C126.42 37.6231 125.63 36.7137 125.63 35.2942C125.63 33.5197 126.59 32.078 128.96 31.5789L129.062 31.4795C126.952 30.213 125.565 28.0674 125.565 25.6337C125.565 21.741 129.113 18.5854 133.49 18.5854C134.818 18.5854 136.07 18.8759 137.169 19.3892C137.341 18.314 137.967 17.4236 138.488 16.885C138.838 16.4126 139.406 16.1055 140.046 16.1055C141.11 16.1055 141.973 16.9528 141.973 17.998C141.973 19.0433 141.11 19.8906 140.046 19.8906C139.557 19.8906 139.111 19.7116 138.771 19.4166C138.09 19.0558 137.824 19.2739 137.72 19.6725C139.941 20.9215 141.415 23.1245 141.415 25.6337ZM131.738 20.7982C131.738 19.8477 132.523 19.0771 133.49 19.0771C134.457 19.0771 135.242 19.8477 135.242 20.7982V30.4691C135.242 31.4197 134.457 32.1903 133.49 32.1903C132.523 32.1903 131.738 31.4197 131.738 30.4691V20.7982ZM129.299 38.7876C128.565 38.8615 127.097 39.4087 127.097 41.0056C127.097 43.0019 130.481 43.979 133.475 43.979C137.088 43.979 139.458 42.7247 139.458 41.0056C139.458 39.2867 138.555 38.3993 133.758 38.7876C130.902 39.0187 129.795 38.8591 129.357 38.7959C129.336 38.7929 129.317 38.7901 129.299 38.7876Z" fill="white"/>
<path fill-rule="evenodd" clip-rule="evenodd" d="M102.909 25.6332V26.4528C102.909 27.6001 104.477 29.731 106.413 29.731C109.065 29.731 111.104 28.6578 112.064 27.6538C111.103 29.2321 109.369 31.3903 107.132 32.3322C106.354 32.5588 105.524 32.6815 104.661 32.6815C100.76 32.6815 97.5172 30.1742 96.8583 26.8726C96.7782 26.4702 96.7365 26.056 96.7365 25.6332C96.7365 21.7405 100.284 18.5849 104.661 18.5849C108.599 18.5849 111.865 21.1388 112.481 24.4858C112.55 24.8592 112.586 25.2425 112.586 25.6332H102.909ZM106.413 24.9775H102.909V20.7977C102.909 19.8472 103.694 19.0766 104.661 19.0766C105.629 19.0766 106.413 19.8472 106.413 20.7977V24.9775Z" fill="white"/>
</svg>
